HIERARCHY
ROOT Hips
{
	OFFSET 0.00000 0.00000 0.00000
	CHANNELS 6 Xposition Yposition Zposition Yrotation Zrotation Xrotation 
	JOINT Lumbar
	{
		OFFSET 0 0 0
		CHANNELS 3 Zrotation Xrotation Yrotation
		JOINT Neck
		{
			OFFSET 0.00 0.2701 0.00
			CHANNELS 3 Zrotation Xrotation Yrotation
			End Site
			{
				OFFSET 0.00 0.1379 0.00
			}
		}
		JOINT RightShoulder
		{
			OFFSET 0.0119 0.2289 0.1181
			CHANNELS 3 Zrotation Xrotation Yrotation
			JOINT RightElbow
			{
				OFFSET 0.00 -0.1475 0.00
				CHANNELS 2 Zrotation Yrotation
				JOINT RightWrist
				{
					OFFSET 0.00 -0.1605 0.00
					CHANNELS 2 Zrotation Xrotation
					End Site
					{
						OFFSET 0.0040 -0.1068 0.0006
					}
				}
			}
		}
		JOINT LeftShoulder
		{
			OFFSET 0.0119 0.2289 -0.1181
			CHANNELS 3 Zrotation Xrotation Yrotation
			JOINT LeftElbow
			{
				OFFSET 0.00 -0.1475 0.00
				CHANNELS 2 Zrotation Yrotation
				JOINT LeftWrist
				{
					OFFSET 0.00 -0.1605 0.00
					CHANNELS 2 Zrotation Xrotation
					End Site
					{
						OFFSET 0.0040 -0.1068 -0.0006
					}
				}
			}
		}
	}
	JOINT RightHip
	{
		OFFSET 0.0316 -0.0424 0.0458
		CHANNELS 3 Zrotation Xrotation Yrotation
		JOINT RightKnee
		{
			OFFSET 0.00 -0.2438 0.00
			CHANNELS 1 Zrotation
			JOINT RightAnkle
			{
				OFFSET 0.00 -0.2449 0.00
				CHANNELS 3 Zrotation Xrotation Yrotation
				End Site
				{
					OFFSET 0.1237 -0.0542 0.0051
				}
			}
		}
	}
	JOINT LeftHip
	{
		OFFSET 0.0316 -0.0424 -0.0458
		CHANNELS 3 Zrotation Xrotation Yrotation
		JOINT LeftKnee
		{
			OFFSET 0.00 -0.2438 0.00
			CHANNELS 1 Zrotation
			JOINT LeftAnkle
			{
				OFFSET 0.00 -0.2449 0.00
				CHANNELS 3 Zrotation Xrotation Yrotation
				End Site
				{
					OFFSET 0.1237 -0.0542 -0.0051
				}
			}
		}
	}
}
MOTION
Frames: 11
Frame Time: 0.02
0.25219 -0.1456 -0.05386 -182.21598 -50.78212 -6.07177 6.80461 0.75428 1.54113 45.73789 1.48316 -0.83078 51.08921 11.40184 55.00956 63.09336 132.19275 18.33981 7.41809 49.70108 -11.40184 -64.17121 79.98672 -126.15692 24.77485 -3.22735 122.20581 0.13673 -15.86155 -83.34168 -9.078 -1.97189 -1.74976 127.0966 14.5469 34.77433 -118.95204 -10.46673 3.32542 2.54922
0.25233 -0.14559 -0.05382 -182.25663 -50.74473 -6.09178 6.79937 0.77366 1.53371 45.72119 1.52164 -0.83078 51.05683 11.40184 55.01201 63.03419 132.19181 18.30468 7.39059 49.7266 -11.40185 -64.17121 79.88018 -126.19267 24.71849 -3.2653 122.16841 0.12011 -15.89882 -83.33355 -9.08747 -1.97171 -1.74729 127.03722 14.64079 34.74301 -119.2 -10.58076 3.2746 2.52911
0.25242 -0.14566 -0.05373 -182.32508 -50.71702 -6.12083 6.8068 0.78189 1.51792 45.70916 1.56226 -0.83078 51.02581 11.40185 55.00662 62.9534 132.18832 18.26577 7.36054 49.7501 -11.40184 -64.17121 79.75585 -126.22502 24.675 -3.30308 122.12417 0.0819 -15.98493 -83.31008 -9.09355 -1.96649 -1.74041 127.03075 14.68955 34.65286 -119.43312 -10.45502 3.31634 2.54677
0.25253 -0.14569 -0.05367 -182.37977 -50.68591 -6.14585 6.80859 0.79499 1.50601 45.69495 1.60148 -0.83078 50.99443 11.40185 55.00344 62.88264 132.18679 18.23227 7.33426 49.77326 -11.40184 -64.17121 79.63917 -126.25815 24.62838 -3.33988 122.08425 0.05493 -16.04656 -83.29385 -9.10082 -1.96348 -1.73557 126.99867 14.76138 34.59334 -119.66652 -10.4144 3.32393 2.55087
0.25264 -0.14573 -0.05358 -182.43943 -50.64976 -6.17037 6.80914 0.80902 1.49288 45.68029 1.64122 -0.83078 50.96285 11.40185 55.00719 62.81006 132.18151 18.18395 7.29651 49.80159 -11.40185 -64.17121 79.5251 -126.29425 24.56993 -3.38124 122.03887 0.02258 -16.11726 -83.27709 -9.10969 -1.96091 -1.73066 126.96921 14.8264 34.52137 -119.92889 -10.48076 3.29533 2.5388
0.25274 -0.14577 -0.05353 -182.4959 -50.62673 -6.19896 6.8156 0.81844 1.4817 45.6685 1.68223 -0.83078 50.93026 11.40186 54.99296 62.73742 132.1838 18.16449 7.28226 49.81806 -11.40184 -64.17121 79.40045 -126.32365 24.53933 -3.41314 122.00323 -0.0036 -16.18117 -83.25721 -9.11444 -1.95617 -1.72481 126.94833 14.89447 34.45933 -120.12708 -10.27327 3.36204 2.56833
0.25284 -0.14584 -0.0536 -182.52907 -50.63709 -6.22653 6.83485 0.81777 1.46487 45.65627 1.70936 -0.83078 50.91235 11.40185 54.94651 62.65782 132.20527 18.23612 7.33257 49.81077 -11.40183 -64.17116 79.25806 -126.3324 24.58293 -3.41711 121.99769 -0.01162 -16.21096 -83.23679 -9.10793 -1.94687 -1.7174 126.93872 14.9675 34.44525 -120.14733 -9.26259 3.70866 2.72133
0.25293 -0.14591 -0.05369 -182.55943 -50.66031 -6.25965 6.85986 0.81289 1.45257 45.64784 1.74074 -0.83078 50.89038 11.40185 54.8798 62.58062 132.23522 18.3352 7.40657 49.79029 -11.40182 -64.1711 79.104 -126.33467 24.65456 -3.41166 122.00181 -0.01205 -16.23291 -83.21302 -9.09749 -1.93553 -1.70919 126.93636 15.04656 34.44155 -120.10391 -8.00051 4.14219 2.91223
0.253 -0.14598 -0.05375 -182.59596 -50.6783 -6.29671 6.88255 0.80987 1.44686 45.64277 1.78124 -0.83078 50.85842 11.40185 54.81164 62.51088 132.26243 18.4146 7.47073 49.77029 -11.40181 -64.17105 78.95095 -126.34237 24.71248 -3.41192 122.00075 -0.01335 -16.26071 -83.18777 -9.08931 -1.92499 -1.70135 126.93094 15.13231 34.42861 -120.09231 -6.92245 4.51016 3.07404
0.25314 -0.14606 -0.05387 -182.61264 -50.69485 -6.30682 6.90416 0.80642 1.40479 45.61754 1.77535 -0.83078 50.87558 11.40184 54.78638 62.40644 132.28351 18.52345 7.53197 49.77299 -11.40179 -64.17099 78.81658 -126.34113 24.77293 -3.40698 122.00338 -0.02623 -16.28054 -83.17423 -9.07906 -1.91479 -1.69333 126.92639 15.17902 34.43284 -120.06848 -5.54803 4.9886 3.28593
0.25315 -0.14612 -0.05389 -182.66986 -50.71632 -6.37429 6.92955 0.80336 1.4391 45.63366 1.86682 -0.83078 50.79054 11.40184 54.66936 62.37241 132.32108 18.5786 7.60361 49.72591 -11.40179 -64.17096 78.63928 -126.35491 24.83712 -3.40961 121.99995 -0.01298 -16.31448 -83.13624 -9.0722 -1.90349 -1.68557 126.92097 15.30623 34.40443 -120.05464 -4.72638 5.25978 3.40363
